<svg width="69" height="69" viewBox="0 0 69 69" fill="none" xmlns="http://www.w3.org/2000/svg">
<path d="M17.6992 54.9844C17.4596 55.2539 17.1602 55.209 16.8008 54.8496C16.4115 54.5202 16.3516 54.2357 16.6211 53.9961C16.8607 53.7266 17.1602 53.7715 17.5195 54.1309C17.8789 54.4603 17.9388 54.7448 17.6992 54.9844ZM15.8125 52.2441C16.082 52.6035 16.082 52.888 15.8125 53.0977C15.5729 53.2773 15.3184 53.1725 15.0488 52.7832C14.7793 52.3939 14.7793 52.1243 15.0488 51.9746C15.3184 51.765 15.5729 51.8548 15.8125 52.2441ZM13.0723 49.5488C12.9225 49.7585 12.7279 49.7884 12.4883 49.6387C12.1888 49.4889 12.084 49.3092 12.1738 49.0996C12.2637 48.9499 12.4583 48.9199 12.7578 49.0098C13.0573 49.1595 13.1621 49.3392 13.0723 49.5488ZM14.4648 51.0762C14.2852 51.2858 14.0456 51.2409 13.7461 50.9414C13.4766 50.612 13.4466 50.3724 13.6562 50.2227C13.8359 50.043 14.0755 50.0879 14.375 50.3574C14.6445 50.6868 14.6745 50.9264 14.4648 51.0762ZM20.2598 56.1074C20.14 56.4668 19.8555 56.5566 19.4062 56.3769C18.8971 56.2572 18.7025 56.0325 18.8223 55.7031C18.9421 55.3737 19.2266 55.2689 19.6758 55.3887C20.1549 55.5384 20.3496 55.778 20.2598 56.1074ZM23.0898 56.332C23.0898 56.6615 22.8503 56.8262 22.3711 56.8262C21.862 56.8861 21.6074 56.7214 21.6074 56.332C21.6074 56.0026 21.847 55.8379 22.3262 55.8379C22.8353 55.778 23.0898 55.9427 23.0898 56.332ZM25.6953 55.8828C25.7552 56.1823 25.5456 56.3919 25.0664 56.5117C24.5872 56.6315 24.3177 56.5117 24.2578 56.1523C24.1979 55.793 24.4076 55.5684 24.8867 55.4785C25.3659 55.4186 25.6354 55.5534 25.6953 55.8828ZM69 12.9375V56.0625C69 59.6263 67.7347 62.6735 65.2041 65.2041C62.6735 67.7347 59.6263 69 56.0625 69H46C45.5208 69 45.154 68.985 44.8994 68.9551C44.6449 68.9251 44.3529 68.8503 44.0234 68.7305C43.694 68.6107 43.4544 68.3936 43.3047 68.0791C43.1549 67.7646 43.0801 67.3529 43.0801 66.8438V56.1074C43.0801 53.2025 42.3014 51.0762 40.7441 49.7285C42.4512 49.5488 43.986 49.2793 45.3486 48.9199C46.7113 48.5605 48.1188 47.9766 49.5713 47.168C51.0238 46.3594 52.2367 45.3636 53.21 44.1807C54.1833 42.9977 54.9769 41.4255 55.5908 39.4639C56.2048 37.5023 56.5117 35.2487 56.5117 32.7031C56.5117 29.0794 55.3288 25.9948 52.9629 23.4492C54.071 20.724 53.9512 17.6693 52.6035 14.2852C51.765 14.0156 50.5521 14.1803 48.9648 14.7793C47.3776 15.3783 46 16.0371 44.832 16.7559L43.125 17.834C40.3398 17.0553 37.4648 16.666 34.5 16.666C31.5352 16.666 28.6602 17.0553 25.875 17.834C25.3958 17.5046 24.7594 17.1003 23.9658 16.6211C23.1722 16.1419 21.9219 15.5654 20.2148 14.8916C18.5078 14.2178 17.2201 14.0156 16.3516 14.2852C15.0339 17.6693 14.929 20.724 16.0371 23.4492C13.6712 25.9948 12.4883 29.0794 12.4883 32.7031C12.4883 35.2487 12.7952 37.4948 13.4092 39.4414C14.0231 41.388 14.8092 42.9603 15.7676 44.1582C16.7259 45.3561 17.9313 46.3594 19.3838 47.168C20.8363 47.9766 22.2438 48.5605 23.6064 48.9199C24.9691 49.2793 26.5039 49.5488 28.2109 49.7285C27.013 50.8066 26.2793 52.349 26.0098 54.3555C25.3809 54.6549 24.707 54.8796 23.9883 55.0293C23.2695 55.179 22.416 55.2539 21.4277 55.2539C20.4395 55.2539 19.4587 54.932 18.4854 54.2881C17.512 53.6442 16.681 52.7083 15.9922 51.4805C15.4232 50.5221 14.6969 49.7435 13.8135 49.1445C12.93 48.5456 12.1888 48.1862 11.5898 48.0664L10.6914 47.9316C10.0625 47.9316 9.62825 47.999 9.38867 48.1338C9.14909 48.2686 9.07422 48.4408 9.16406 48.6504C9.25391 48.86 9.38867 49.0697 9.56836 49.2793C9.74805 49.4889 9.94271 49.6686 10.1523 49.8184L10.4668 50.043C11.1257 50.3424 11.777 50.9115 12.4209 51.75C13.0648 52.5885 13.5365 53.3522 13.8359 54.041L14.2852 55.0742C14.6745 56.2122 15.3333 57.1331 16.2617 57.8369C17.1901 58.5407 18.1934 58.9899 19.2715 59.1846C20.3496 59.3792 21.3903 59.4841 22.3936 59.499C23.3968 59.514 24.2279 59.4616 24.8867 59.3418L25.9199 59.1621C25.9199 60.3001 25.9274 61.8424 25.9424 63.7891C25.9574 65.7357 25.9648 66.7539 25.9648 66.8438C25.9648 67.5026 25.8001 68.0042 25.4707 68.3486C25.1413 68.693 24.8118 68.8877 24.4824 68.9326C24.153 68.9775 23.6589 69 23 69H12.9375C9.3737 69 6.3265 67.7347 3.7959 65.2041C1.2653 62.6735 0 59.6263 0 56.0625V12.9375C0 9.3737 1.2653 6.3265 3.7959 3.7959C6.3265 1.2653 9.3737 0 12.9375 0H56.0625C59.6263 0 62.6735 1.2653 65.2041 3.7959C67.7347 6.3265 69 9.3737 69 12.9375Z" fill="black"/>
</svg>
