<svg width="40" height="40" viewBox="0 0 40 40" fill="none" xmlns="http://www.w3.org/2000/svg">
<path d="M10.2604 31.875C10.1215 32.0312 9.94792 32.0052 9.73958 31.7969C9.51389 31.6059 9.47917 31.441 9.63542 31.3021C9.77431 31.1458 9.94792 31.1719 10.1562 31.3802C10.3646 31.5712 10.3993 31.7361 10.2604 31.875ZM9.16667 30.2865C9.32292 30.4948 9.32292 30.6597 9.16667 30.7812C9.02778 30.8854 8.88021 30.8247 8.72396 30.599C8.56771 30.3733 8.56771 30.217 8.72396 30.1302C8.88021 30.0087 9.02778 30.0608 9.16667 30.2865ZM7.57812 28.724C7.49132 28.8455 7.37847 28.8628 7.23958 28.776C7.06597 28.6892 7.00521 28.5851 7.05729 28.4635C7.10938 28.3767 7.22222 28.3594 7.39583 28.4115C7.56944 28.4983 7.63021 28.6024 7.57812 28.724ZM8.38542 29.6094C8.28125 29.7309 8.14236 29.7049 7.96875 29.5312C7.8125 29.3403 7.79514 29.2014 7.91667 29.1146C8.02083 29.0104 8.15972 29.0365 8.33333 29.1927C8.48958 29.3837 8.50694 29.5226 8.38542 29.6094ZM11.7448 32.526C11.6753 32.7344 11.5104 32.7865 11.25 32.6823C10.9549 32.6128 10.842 32.4826 10.9115 32.2917C10.9809 32.1007 11.1458 32.0399 11.4062 32.1094C11.684 32.1962 11.7969 32.3351 11.7448 32.526ZM13.3854 32.6562C13.3854 32.8472 13.2465 32.9427 12.9688 32.9427C12.6736 32.9774 12.526 32.8819 12.526 32.6562C12.526 32.4653 12.6649 32.3698 12.9427 32.3698C13.2378 32.3351 13.3854 32.4306 13.3854 32.6562ZM14.8958 32.3958C14.9306 32.5694 14.809 32.691 14.5312 32.7604C14.2535 32.8299 14.0972 32.7604 14.0625 32.5521C14.0278 32.3438 14.1493 32.2135 14.4271 32.1615C14.7049 32.1267 14.8611 32.2049 14.8958 32.3958ZM40 7.5V32.5C40 34.566 39.2665 36.3325 37.7995 37.7995C36.3325 39.2665 34.566 40 32.5 40H26.6667C26.3889 40 26.1762 39.9913 26.0286 39.974C25.8811 39.9566 25.7118 39.9132 25.5208 39.8438C25.3299 39.7743 25.191 39.6484 25.1042 39.4661C25.0174 39.2839 24.974 39.0451 24.974 38.75V32.526C24.974 30.842 24.5226 29.6094 23.6198 28.8281C24.6094 28.724 25.4991 28.5677 26.2891 28.3594C27.079 28.151 27.895 27.8125 28.737 27.3438C29.579 26.875 30.2821 26.2977 30.8464 25.612C31.4106 24.9262 31.8707 24.0148 32.2266 22.8776C32.5825 21.7404 32.7604 20.434 32.7604 18.9583C32.7604 16.8576 32.0747 15.0694 30.7031 13.5938C31.3455 12.0139 31.276 10.2431 30.4948 8.28125C30.0087 8.125 29.3056 8.22049 28.3854 8.56771C27.4653 8.91493 26.6667 9.29687 25.9896 9.71354L25 10.3385C23.3854 9.88715 21.7188 9.66146 20 9.66146C18.2812 9.66146 16.6146 9.88715 15 10.3385C14.7222 10.1476 14.3533 9.91319 13.8932 9.63542C13.4332 9.35764 12.7083 9.02344 11.7188 8.63281C10.7292 8.24219 9.98264 8.125 9.47917 8.28125C8.71528 10.2431 8.65451 12.0139 9.29688 13.5938C7.92535 15.0694 7.23958 16.8576 7.23958 18.9583C7.23958 20.434 7.41753 21.7361 7.77344 22.8646C8.12934 23.9931 8.58507 24.9045 9.14062 25.599C9.69618 26.2934 10.395 26.875 11.237 27.3438C12.079 27.8125 12.895 28.151 13.6849 28.3594C14.4748 28.5677 15.3646 28.724 16.3542 28.8281C15.6597 29.4531 15.2344 30.3472 15.0781 31.5104C14.7135 31.684 14.3229 31.8142 13.9062 31.901C13.4896 31.9878 12.9948 32.0312 12.4219 32.0312C11.849 32.0312 11.2804 31.8446 10.7161 31.4714C10.1519 31.0981 9.67014 30.5556 9.27083 29.8438C8.94097 29.2882 8.51997 28.8368 8.00781 28.4896C7.49566 28.1424 7.06597 27.934 6.71875 27.8646L6.19792 27.7865C5.83333 27.7865 5.5816 27.8255 5.44271 27.9036C5.30382 27.9818 5.26042 28.0816 5.3125 28.2031C5.36458 28.3247 5.44271 28.4462 5.54688 28.5677C5.65104 28.6892 5.76389 28.7934 5.88542 28.8802L6.06771 29.0104C6.44965 29.184 6.82726 29.5139 7.20052 30C7.57378 30.4861 7.84722 30.9288 8.02083 31.3281L8.28125 31.9271C8.50694 32.5868 8.88889 33.1207 9.42708 33.5286C9.96528 33.9366 10.5469 34.197 11.1719 34.3099C11.7969 34.4227 12.4002 34.4835 12.9818 34.4922C13.5634 34.5009 14.0451 34.4705 14.4271 34.401L15.026 34.2969C15.026 34.9566 15.0304 35.8507 15.0391 36.9792C15.0477 38.1076 15.0521 38.6979 15.0521 38.75C15.0521 39.1319 14.9566 39.4227 14.7656 39.6224C14.5747 39.822 14.3837 39.9349 14.1927 39.9609C14.0017 39.987 13.7153 40 13.3333 40H7.5C5.43403 40 3.66753 39.2665 2.20052 37.7995C0.733507 36.3325 0 34.566 0 32.5V7.5C0 5.43403 0.733507 3.66753 2.20052 2.20052C3.66753 0.733507 5.43403 0 7.5 0H32.5C34.566 0 36.3325 0.733507 37.7995 2.20052C39.2665 3.66753 40 5.43403 40 7.5Z" fill="white"/>
</svg>
