<svg width="69" height="69" viewBox="0 0 69 69" fill="none" xmlns="http://www.w3.org/2000/svg">
<path d="M63.3382 0.00512695C66.4471 0.00512695 68.9909 3.52051 68.9909 7.81688V10.0815L61.1376 17.8341L34.4013 43.2864L7.66497 17.5759V68.9949H5.65264C2.54379 68.9949 0 65.4796 0 61.1832V7.81905C0 3.5226 2.54379 0.00721753 5.65264 0.00721753L34.4013 29.4639L63.3367 0.00721753L63.3382 0.00512695Z" fill="#E75A4D"/>
<path d="M5.65259 0.00512695L34.4012 29.4618L63.3382 0.00512695H5.65259Z" fill="url(#paint0_linear_79828_69)"/>
<path d="M7.66504 17.5759V68.995H61.1391V17.8341L34.4013 43.2865L7.66504 17.5759Z" fill="#E7E4D7"/>
<path d="M7.66504 68.9949L34.4013 43.2864L34.2803 43.168L7.66504 68.4298V68.9949Z" fill="#B8B7AE"/>
<path d="M61.1391 17.834L61.1543 68.9948L34.4012 43.2864L61.1391 17.834Z" fill="#B7B6AD"/>
<path d="M68.9908 10.0814L69 61.1894C68.8653 66.87 67.0842 68.8975 61.1543 68.9928L61.139 17.8319L68.9923 10.0793L68.9908 10.0814Z" fill="#B2392F"/>
<path d="M5.65259 0.00512695L34.4012 29.4618L63.3382 0.00512695H5.65259Z" fill="url(#paint1_linear_79828_69)"/>
<path d="M5.65259 0.00512695L34.4012 29.4618L63.3382 0.00512695H5.65259Z" fill="url(#paint2_linear_79828_69)"/>
<path d="M5.65259 0.00512695L34.4012 29.4618L63.3382 0.00512695H5.65259Z" fill="url(#paint3_linear_79828_69)"/>
<path d="M5.65259 0.00512695L34.4012 29.4618L63.3382 0.00512695H5.65259Z" fill="url(#paint4_linear_79828_69)"/>
<path d="M5.65259 0.00512695L34.4012 29.4618L63.3382 0.00512695H5.65259Z" fill="url(#paint5_linear_79828_69)"/>
<path d="M5.65259 0.00512695L34.4012 29.4618L63.3382 0.00512695H5.65259Z" fill="url(#paint6_linear_79828_69)"/>
<path d="M5.65259 0.00512695L34.4012 29.4618L63.3382 0.00512695H5.65259Z" fill="url(#paint7_linear_79828_69)"/>
<path d="M5.65259 0.00512695L34.4012 29.4618L63.3382 0.00512695H5.65259Z" fill="#F7F5ED"/>
<defs>
<linearGradient id="paint0_linear_79828_69" x1="16.0315" y1="14.736" x2="52.8892" y2="14.736" gradientUnits="userSpaceOnUse">
<stop stop-color="#F8F6EF"/>
<stop offset="1" stop-color="#E7E4D6"/>
</linearGradient>
<linearGradient id="paint1_linear_79828_69" x1="16.0315" y1="14.736" x2="52.8892" y2="14.736" gradientUnits="userSpaceOnUse">
<stop stop-color="#F8F6EF"/>
<stop offset="1" stop-color="#E7E4D6"/>
</linearGradient>
<linearGradient id="paint2_linear_79828_69" x1="16.0315" y1="14.736" x2="52.8892" y2="14.736" gradientUnits="userSpaceOnUse">
<stop stop-color="#F8F6EF"/>
<stop offset="1" stop-color="#E7E4D6"/>
</linearGradient>
<linearGradient id="paint3_linear_79828_69" x1="16.0315" y1="14.736" x2="52.8892" y2="14.736" gradientUnits="userSpaceOnUse">
<stop stop-color="#F8F6EF"/>
<stop offset="1" stop-color="#E7E4D6"/>
</linearGradient>
<linearGradient id="paint4_linear_79828_69" x1="16.0315" y1="14.736" x2="52.8892" y2="14.736" gradientUnits="userSpaceOnUse">
<stop stop-color="#F8F6EF"/>
<stop offset="1" stop-color="#E7E4D6"/>
</linearGradient>
<linearGradient id="paint5_linear_79828_69" x1="16.0315" y1="14.736" x2="52.8892" y2="14.736" gradientUnits="userSpaceOnUse">
<stop stop-color="#F8F6EF"/>
<stop offset="1" stop-color="#E7E4D6"/>
</linearGradient>
<linearGradient id="paint6_linear_79828_69" x1="16.0315" y1="14.736" x2="52.8892" y2="14.736" gradientUnits="userSpaceOnUse">
<stop stop-color="#F8F6EF"/>
<stop offset="1" stop-color="#E7E4D6"/>
</linearGradient>
<linearGradient id="paint7_linear_79828_69" x1="16.0315" y1="14.736" x2="52.8892" y2="14.736" gradientUnits="userSpaceOnUse">
<stop stop-color="#F8F6EF"/>
<stop offset="1" stop-color="#E7E4D6"/>
</linearGradient>
</defs>
</svg>
