<svg width="165" height="33" viewBox="0 0 165 33" fill="none" xmlns="http://www.w3.org/2000/svg">
<path d="M24.48 0.14V20.705C24.48 24.515 23.475 27.41 21.465 29.39C19.485 31.34 16.695 32.315 13.095 32.315C9.225 32.315 6.15 31.25 3.87 29.12C1.59 26.99 0.45 23.885 0.45 19.805H10.305C10.305 21.095 10.515 22.01 10.935 22.55C11.355 23.06 11.925 23.315 12.645 23.315C13.245 23.315 13.71 23.12 14.04 22.73C14.37 22.34 14.535 21.665 14.535 20.705V0.14H24.48ZM151.934 32.28C150.884 32.28 150.021 31.9767 149.344 31.37C148.691 30.74 148.364 29.97 148.364 29.06C148.364 28.1267 148.691 27.345 149.344 26.715C150.021 26.085 150.884 25.77 151.934 25.77C152.961 25.77 153.801 26.085 154.454 26.715C155.131 27.345 155.469 28.1267 155.469 29.06C155.469 29.97 155.131 30.74 154.454 31.37C153.801 31.9767 152.961 32.28 151.934 32.28ZM160.762 32.28C159.712 32.28 158.849 31.9767 158.172 31.37C157.519 30.74 157.192 29.97 157.192 29.06C157.192 28.1267 157.519 27.345 158.172 26.715C158.849 26.085 159.712 25.77 160.762 25.77C161.789 25.77 162.629 26.085 163.282 26.715C163.959 27.345 164.297 28.1267 164.297 29.06C164.297 29.97 163.959 30.74 163.282 31.37C162.629 31.9767 161.789 32.28 160.762 32.28Z" fill="#0BBEF2"/>
<path d="M42.238 19.4C43.6613 19.7033 44.8046 20.415 45.668 21.535C46.5313 22.6317 46.963 23.8917 46.963 25.315C46.963 27.3683 46.2396 29.0017 44.793 30.215C43.3696 31.405 41.3746 32 38.808 32H27.363V7.43H38.423C40.9196 7.43 42.868 8.00167 44.268 9.145C45.6913 10.2883 46.403 11.84 46.403 13.8C46.403 15.2467 46.018 16.4483 45.248 17.405C44.5013 18.3617 43.498 19.0267 42.238 19.4ZM33.348 17.37H37.268C38.248 17.37 38.9946 17.16 39.508 16.74C40.0446 16.2967 40.313 15.655 40.313 14.815C40.313 13.975 40.0446 13.3333 39.508 12.89C38.9946 12.4467 38.248 12.225 37.268 12.225H33.348V17.37ZM37.758 27.17C38.7613 27.17 39.5313 26.9483 40.068 26.505C40.628 26.0383 40.908 25.3733 40.908 24.51C40.908 23.6467 40.6163 22.97 40.033 22.48C39.473 21.99 38.6913 21.745 37.688 21.745H33.348V27.17H37.758ZM52.3943 10.44C51.3443 10.44 50.4809 10.1367 49.8043 9.53C49.1509 8.9 48.8243 8.13 48.8243 7.22C48.8243 6.28667 49.1509 5.51667 49.8043 4.91C50.4809 4.28 51.3443 3.965 52.3943 3.965C53.4209 3.965 54.2609 4.28 54.9143 4.91C55.5909 5.51667 55.9293 6.28667 55.9293 7.22C55.9293 8.13 55.5909 8.9 54.9143 9.53C54.2609 10.1367 53.4209 10.44 52.3943 10.44ZM55.3693 12.47V32H49.3843V12.47H55.3693ZM57.4665 22.2C57.4665 20.1933 57.8399 18.4317 58.5865 16.915C59.3565 15.3983 60.3949 14.2317 61.7015 13.415C63.0082 12.5983 64.4665 12.19 66.0765 12.19C67.4532 12.19 68.6549 12.47 69.6815 13.03C70.7315 13.59 71.5365 14.325 72.0965 15.235V12.47H78.0815V32H72.0965V29.235C71.5132 30.145 70.6965 30.88 69.6465 31.44C68.6199 32 67.4182 32.28 66.0415 32.28C64.4549 32.28 63.0082 31.8717 61.7015 31.055C60.3949 30.215 59.3565 29.0367 58.5865 27.52C57.8399 25.98 57.4665 24.2067 57.4665 22.2ZM72.0965 22.235C72.0965 20.7417 71.6765 19.5633 70.8365 18.7C70.0199 17.8367 69.0165 17.405 67.8265 17.405C66.6365 17.405 65.6215 17.8367 64.7815 18.7C63.9649 19.54 63.5565 20.7067 63.5565 22.2C63.5565 23.6933 63.9649 24.8833 64.7815 25.77C65.6215 26.6333 66.6365 27.065 67.8265 27.065C69.0165 27.065 70.0199 26.6333 70.8365 25.77C71.6765 24.9067 72.0965 23.7283 72.0965 22.235ZM93.2614 12.26C95.5481 12.26 97.3681 13.0067 98.7214 14.5C100.098 15.97 100.786 18 100.786 20.59V32H94.8364V21.395C94.8364 20.0883 94.4981 19.0733 93.8214 18.35C93.1447 17.6267 92.2347 17.265 91.0914 17.265C89.9481 17.265 89.0381 17.6267 88.3614 18.35C87.6847 19.0733 87.3464 20.0883 87.3464 21.395V32H81.3614V12.47H87.3464V15.06C87.9531 14.1967 88.7697 13.52 89.7964 13.03C90.8231 12.5167 91.9781 12.26 93.2614 12.26ZM102.705 22.2C102.705 20.1933 103.079 18.4317 103.825 16.915C104.595 15.3983 105.634 14.2317 106.94 13.415C108.247 12.5983 109.705 12.19 111.315 12.19C112.692 12.19 113.894 12.47 114.92 13.03C115.97 13.59 116.775 14.325 117.335 15.235V12.47H123.32V32H117.335V29.235C116.752 30.145 115.935 30.88 114.885 31.44C113.859 32 112.657 32.28 111.28 32.28C109.694 32.28 108.247 31.8717 106.94 31.055C105.634 30.215 104.595 29.0367 103.825 27.52C103.079 25.98 102.705 24.2067 102.705 22.2ZM117.335 22.235C117.335 20.7417 116.915 19.5633 116.075 18.7C115.259 17.8367 114.255 17.405 113.065 17.405C111.875 17.405 110.86 17.8367 110.02 18.7C109.204 19.54 108.795 20.7067 108.795 22.2C108.795 23.6933 109.204 24.8833 110.02 25.77C110.86 26.6333 111.875 27.065 113.065 27.065C114.255 27.065 115.259 26.6333 116.075 25.77C116.915 24.9067 117.335 23.7283 117.335 22.235ZM138.5 12.26C140.787 12.26 142.607 13.0067 143.96 14.5C145.337 15.97 146.025 18 146.025 20.59V32H140.075V21.395C140.075 20.0883 139.737 19.0733 139.06 18.35C138.384 17.6267 137.474 17.265 136.33 17.265C135.187 17.265 134.277 17.6267 133.6 18.35C132.924 19.0733 132.585 20.0883 132.585 21.395V32H126.6V12.47H132.585V15.06C133.192 14.1967 134.009 13.52 135.035 13.03C136.062 12.5167 137.217 12.26 138.5 12.26Z" fill="white"/>
</svg>
