<svg width="32" height="32" viewBox="0 0 32 32" fill="none" xmlns="http://www.w3.org/2000/svg">
<rect width="32" height="32" rx="4" fill="#324162"/>
<path d="M12.04 8.96V18.52C12.04 20 11.62 21.14 10.78 21.94C9.95333 22.74 8.83333 23.14 7.42 23.14C5.94 23.14 4.75333 22.72 3.86 21.88C2.96667 21.04 2.52 19.8467 2.52 18.3H5.92C5.92 18.8867 6.04 19.3333 6.28 19.64C6.52 19.9333 6.86667 20.08 7.32 20.08C7.73333 20.08 8.05333 19.9467 8.28 19.68C8.50667 19.4133 8.62 19.0267 8.62 18.52V8.96H12.04ZM28.3861 23.16C27.7861 23.16 27.2928 22.9867 26.9061 22.64C26.5328 22.28 26.3461 21.84 26.3461 21.32C26.3461 20.7867 26.5328 20.34 26.9061 19.98C27.2928 19.62 27.7861 19.44 28.3861 19.44C28.9728 19.44 29.4528 19.62 29.8261 19.98C30.2128 20.34 30.4061 20.7867 30.4061 21.32C30.4061 21.84 30.2128 22.28 29.8261 22.64C29.4528 22.9867 28.9728 23.16 28.3861 23.16Z" fill="#0BBEF2"/>
<path d="M22.7025 15.8C23.5158 15.9733 24.1692 16.38 24.6625 17.02C25.1558 17.6467 25.4025 18.3667 25.4025 19.18C25.4025 20.3533 24.9892 21.2867 24.1625 21.98C23.3492 22.66 22.2092 23 20.7425 23H14.2025V8.96H20.5225C21.9492 8.96 23.0625 9.28667 23.8625 9.94C24.6758 10.5933 25.0825 11.48 25.0825 12.6C25.0825 13.4267 24.8625 14.1133 24.4225 14.66C23.9958 15.2067 23.4225 15.5867 22.7025 15.8ZM17.6225 14.64H19.8625C20.4225 14.64 20.8492 14.52 21.1425 14.28C21.4492 14.0267 21.6025 13.66 21.6025 13.18C21.6025 12.7 21.4492 12.3333 21.1425 12.08C20.8492 11.8267 20.4225 11.7 19.8625 11.7H17.6225V14.64ZM20.1425 20.24C20.7158 20.24 21.1558 20.1133 21.4625 19.86C21.7825 19.5933 21.9425 19.2133 21.9425 18.72C21.9425 18.2267 21.7758 17.84 21.4425 17.56C21.1225 17.28 20.6758 17.14 20.1025 17.14H17.6225V20.24H20.1425Z" fill="#F5F7FA"/>
</svg>
