<svg width="70" height="70" viewBox="0 0 70 70" fill="none" xmlns="http://www.w3.org/2000/svg">
<path d="M0 35V70H70V0H0V35ZM56.4088 32.2C58.0854 32.5891 59.6092 33.4659 60.788 34.72C61.437 35.3956 62.0011 36.1478 62.468 36.96C62.468 37.0496 59.444 39.0936 57.6016 40.236C57.5344 40.2808 57.2656 39.9896 56.9688 39.5472C56.6325 38.9669 56.1546 38.4812 55.5798 38.1355C55.0049 37.7898 54.3519 37.5954 53.6816 37.5704C51.5592 37.4248 50.1928 38.5392 50.204 40.3704C50.1865 40.8263 50.2908 41.2787 50.5064 41.6808C50.9712 42.6496 51.8392 43.2264 54.5608 44.4024C59.5728 46.5584 61.7176 47.9808 63.0504 50.0024C64.54 52.2424 64.8704 55.86 63.8624 58.5368C62.7424 61.4488 59.9984 63.4256 56.1176 64.0808C54.3451 64.2838 52.5542 64.265 50.7864 64.0248C48.0769 63.5782 45.5811 62.2773 43.6632 60.312C43.0192 59.6008 41.7648 57.7472 41.8432 57.6128C42.0476 57.461 42.2629 57.3244 42.4872 57.204L45.08 55.7704L47.0904 54.6056L47.5104 55.2272C48.2192 56.2411 49.1213 57.1051 50.1648 57.7696C52.4048 58.9456 55.4624 58.7832 56.9744 57.4224C57.4821 56.9237 57.7988 56.2629 57.8694 55.5548C57.94 54.8467 57.76 54.1363 57.3608 53.5472C56.8008 52.7688 55.6808 52.1136 52.5504 50.7472C48.9384 49.1904 47.3816 48.2272 45.9592 46.6928C45.0712 45.6803 44.4156 44.4856 44.0384 43.1928C43.757 41.7158 43.7154 40.2031 43.9152 38.7128C44.66 35.224 47.2752 32.788 51.0944 32.0656C52.8631 31.8468 54.6547 31.8958 56.4088 32.2112V32.2ZM39.9784 35.1344V38.0016H30.8896V63.8904H24.444V37.996H15.3328V35.196C15.3044 34.2304 15.3269 33.264 15.4 32.3008C15.4448 32.2504 21 32.2504 27.72 32.2504H39.9448L39.9784 35.1344Z" fill="#007ACC"/>
</svg>
