<svg width="70" height="70" viewBox="0 0 70 70" fill="none" xmlns="http://www.w3.org/2000/svg">
<path d="M0 0H70V70H0V0Z" fill="#F0DB4F"/>
<path d="M64.2708 53.3053C63.7585 50.1114 61.6758 47.4298 55.5075 44.9279C53.3649 43.9431 50.9761 43.2379 50.2642 41.6142C50.0113 40.6694 49.978 40.1371 50.1377 39.5648C50.5969 37.7084 52.8126 37.1295 54.5693 37.6618C55.7005 38.0411 56.7718 38.9128 57.4172 40.3034C60.4381 38.3472 60.4315 38.3604 62.5408 37.0164C61.7689 35.8187 61.3564 35.2663 60.8507 34.7541C59.0341 32.7246 56.5588 31.6799 52.5997 31.7598C51.9144 31.8463 51.2224 31.9393 50.537 32.0259C48.5608 32.525 46.6777 33.563 45.5731 34.9537C42.2594 38.7132 43.2043 45.2939 47.2366 48.0021C51.209 50.9831 57.0446 51.6618 57.7898 54.4499C58.5151 57.8634 55.2813 58.9679 52.0674 58.5753C49.6986 58.0829 48.3811 56.8786 46.9571 54.6894C44.3355 56.2065 44.3355 56.2065 41.6407 57.7569C42.2794 59.1542 42.9514 59.7864 44.0228 60.9974C49.0931 66.1409 61.7822 65.8881 64.058 58.1029C64.151 57.8367 64.7633 56.0534 64.2708 53.3053ZM38.0541 32.1722H31.5066C31.5066 37.8281 31.48 43.4441 31.48 49.1C31.48 52.6998 31.6663 56.0002 31.0808 57.0116C30.1226 59.0011 27.6407 58.7549 26.5095 58.3689C25.3583 57.8033 24.7728 56.9982 24.0941 55.8604C23.9078 55.5344 23.768 55.2815 23.7214 55.2616C21.9448 56.3462 20.1748 57.4374 18.3982 58.522C19.2832 60.3386 20.5874 61.9156 22.2575 62.9402C24.7528 64.4374 28.1064 64.8965 31.6131 64.0914C33.8954 63.426 35.8649 62.0487 36.8963 59.9527C38.3868 57.2046 38.0674 53.8776 38.0541 50.1979C38.0874 44.196 38.0541 38.1941 38.0541 32.1722Z" fill="#323330"/>
</svg>
