<svg width="70" height="70" viewBox="0 0 70 70" fill="none" xmlns="http://www.w3.org/2000/svg">
<path d="M69.9605 15.8358C69.9865 15.9292 69.9998 16.0254 70 16.122V31.1474C70 31.3402 69.9476 31.5296 69.8481 31.6965C69.7486 31.8634 69.6055 32.0018 69.4333 32.0977L56.4508 39.3584V53.7497C56.4508 54.1413 56.2366 54.5029 55.8869 54.7001L28.7872 69.8541C28.7252 69.8883 28.6575 69.9102 28.5898 69.9335C28.5645 69.9417 28.5405 69.9568 28.5137 69.9637C28.3243 70.0121 28.1252 70.0121 27.9357 69.9637C27.9047 69.9554 27.8765 69.939 27.8469 69.928C27.7849 69.9061 27.72 69.887 27.6608 69.8541L0.566722 54.7001C0.394601 54.604 0.251586 54.4656 0.152091 54.2987C0.0525957 54.1319 0.000136379 53.9425 0 53.7497L0 8.67375C0 8.57515 0.0140976 8.47929 0.0394732 8.38617C0.0479317 8.35467 0.0676683 8.32592 0.0789463 8.29442C0.100093 8.2369 0.119829 8.17802 0.150844 8.12461C0.17199 8.08901 0.203005 8.06025 0.22838 8.02738C0.260805 7.98356 0.29041 7.93837 0.328473 7.90003C0.360897 7.86853 0.40319 7.84525 0.439844 7.81786C0.480727 7.78499 0.51738 7.74939 0.563902 7.72337L14.1131 0.146352C14.2846 0.0504657 14.4791 0 14.677 0C14.8749 0 15.0693 0.0504657 15.2409 0.146352L28.7886 7.72337H28.7914C28.8365 7.75076 28.8746 7.78499 28.9155 7.81649C28.9521 7.84388 28.993 7.86853 29.0255 7.89866C29.0649 7.93837 29.0931 7.98356 29.127 8.02738C29.1509 8.06025 29.1833 8.08901 29.2031 8.12461C29.2355 8.17939 29.2538 8.2369 29.2764 8.29442C29.2877 8.32592 29.3074 8.35467 29.3159 8.38754C29.3418 8.48086 29.3551 8.57708 29.3553 8.67375V36.8277L40.6447 30.5133V16.1207C40.6447 16.0248 40.6588 15.9276 40.6841 15.8358C40.694 15.803 40.7123 15.7742 40.7236 15.7427C40.7462 15.6852 40.7659 15.6263 40.7969 15.5729C40.8181 15.5373 40.8491 15.5085 40.873 15.4757C40.9069 15.4319 40.9351 15.3867 40.9745 15.3483C41.007 15.3168 41.0479 15.2935 41.0845 15.2662C41.1268 15.2333 41.1635 15.1977 41.2086 15.1717L54.7591 7.59464C54.9306 7.49862 55.1251 7.44808 55.323 7.44808C55.521 7.44808 55.7154 7.49862 55.8869 7.59464L69.4347 15.1717C69.4826 15.1991 69.5193 15.2333 69.5616 15.2648C69.5968 15.2922 69.6377 15.3168 69.6701 15.3469C69.7096 15.3867 69.7378 15.4319 69.7716 15.4757C69.797 15.5085 69.828 15.5373 69.8478 15.5729C69.8802 15.6263 69.8985 15.6852 69.9211 15.7427C69.9337 15.7742 69.9521 15.803 69.9605 15.8358ZM67.7416 30.5133V18.0187L63.0006 20.6699L56.4508 24.3331V36.8277L67.743 30.5133H67.7416ZM54.1938 53.1156V40.6128L47.7512 44.187L29.3539 54.3865V67.0071L54.1938 53.1156ZM2.25843 10.5704V53.1156L27.0955 67.0057V54.3878L14.1201 47.2545L14.1159 47.2518L14.1102 47.249C14.0665 47.2244 14.0299 47.1888 13.989 47.1586C13.9538 47.1313 13.9129 47.1094 13.8819 47.0792L13.879 47.0751C13.8424 47.0409 13.817 46.9984 13.786 46.9601C13.7578 46.9231 13.724 46.8916 13.7014 46.8533L13.7 46.8492C13.6746 46.8081 13.6591 46.7588 13.6408 46.7122C13.6225 46.6711 13.5985 46.6328 13.5872 46.589C13.5731 46.5369 13.5703 46.4808 13.5647 46.4274C13.559 46.3863 13.5477 46.3452 13.5477 46.3041V16.8848L6.99944 13.2202L2.25843 10.5704ZM14.6784 2.36208L3.39046 8.67375L14.6756 14.9854L25.9621 8.67238L14.6756 2.36208H14.6784ZM20.5486 41.7522L27.0969 38.0903V10.5704L22.3559 13.2216L15.8062 16.8848V44.4047L20.5486 41.7522ZM55.323 9.81037L44.0365 16.122L55.323 22.4337L66.6081 16.1207L55.323 9.81037ZM54.1938 24.3331L47.6441 20.6699L42.9031 18.0187V30.5133L49.4514 34.1751L54.1938 36.8277V24.3331ZM28.2233 52.4898L44.7781 43.3092L53.0533 38.7216L41.7753 32.4141L28.79 39.6761L16.9551 46.2945L28.2233 52.4898Z" fill="#FF2D20"/>
</svg>
