<svg width="70" height="70" viewBox="0 0 70 70" fill="none" xmlns="http://www.w3.org/2000/svg">
<path d="M35 0C25.6665 0 19.8352 7.77515 17.5 23.3318C20.9989 15.5558 25.0835 12.6399 29.7489 14.5841C32.4127 15.6907 34.3164 18.9101 36.4246 22.4777C39.8557 28.2813 43.8271 35 52.5 35C61.833 35 67.6648 27.2239 70 11.6636C66.5005 19.4442 62.4165 22.3601 57.7505 20.4159C55.0873 19.3084 53.1858 16.0899 51.0748 12.5223C47.6459 6.71871 43.6756 0 35 0ZM17.5 35C8.16703 35 2.33516 42.7761 0 58.3364C3.49891 50.5558 7.58297 47.6399 12.2489 49.5841C14.9127 50.6916 16.8164 53.9101 18.9246 57.4777C22.3557 63.2813 26.3271 70 35 70C44.333 70 50.1648 62.2249 52.5 46.6682C49.0005 54.4442 44.9165 57.3602 40.2505 55.4159C37.5873 54.3093 35.6858 51.0899 33.5748 47.5223C30.1459 41.7187 26.1756 35 17.5 35Z" fill="#38BDF8"/>
</svg>
