<svg width="69" height="69" viewBox="0 0 69 69" fill="none" xmlns="http://www.w3.org/2000/svg">
<path d="M0 4.94266C0 2.21447 2.28401 0 5.09953 0H63.9005C66.7171 0 69 2.21447 69 4.94266V64.0581C69 66.7871 66.7171 69 63.9005 69H5.09953C2.28428 69 0 66.7874 0 64.059V4.94186V4.94266Z" fill="#006699"/>
<path d="M20.9684 57.7438V26.6798H10.6431V57.7438H20.9694H20.9684ZM15.8079 22.4393C19.4078 22.4393 21.6489 20.0539 21.6489 17.0729C21.5815 14.024 19.4078 11.7052 15.8764 11.7052C12.3425 11.7052 10.0345 14.024 10.0345 17.0727C10.0345 20.0537 12.2749 22.439 15.7403 22.439H15.8071L15.8079 22.4393ZM26.6835 57.7438H37.0079V40.3982C37.0079 39.471 37.0753 38.5414 37.348 37.8791C38.0941 36.0234 39.793 34.1025 42.6459 34.1025C46.3811 34.1025 47.8762 36.9509 47.8762 41.1272V57.7438H58.2003V39.9327C58.2003 30.3916 53.1073 25.9516 46.3143 25.9516C40.7449 25.9516 38.2989 29.0644 36.94 31.1845H37.0087V26.6809H26.684C26.8188 29.5951 26.6832 57.7449 26.6832 57.7449L26.6835 57.7438Z" fill="white"/>
</svg>
