<svg width="69" height="69" viewBox="0 0 69 69" fill="none" xmlns="http://www.w3.org/2000/svg">
<path d="M12.7126 0C5.69112 0 0 5.71872 0 12.7733V56.2267C0 63.2813 5.6925 69 12.7139 69H56.2861C63.3075 69 69 63.2813 69 56.2267V12.7733C69 5.71872 63.3075 0 56.2861 0H12.7126Z" fill="#14A800"/>
<path d="M49.6331 41.9134C45.34 41.9134 42.4999 38.6 41.705 37.3111C42.7207 29.1677 45.6974 26.6009 49.6331 26.6009C53.522 26.6009 56.5511 29.7101 56.5511 34.2572C56.5511 38.8043 53.522 41.9134 49.6331 41.9134ZM49.6331 21.6026C42.6352 21.6026 38.7132 26.1662 37.5926 30.8651C36.3175 28.4722 35.3791 25.2706 34.6394 22.2953H24.967V34.3345C24.967 38.7091 22.9826 41.9341 19.0896 41.9341C15.1966 41.9341 12.9665 38.7091 12.9665 34.3358L13.0079 22.2953H7.43274V34.3345C7.43274 37.8493 8.57262 41.0357 10.6426 43.31C12.7789 45.6532 15.6989 46.8911 19.0868 46.8911C25.8185 46.8911 30.5146 41.7285 30.5146 34.3386V26.249C31.2239 28.9111 32.8882 34.0309 36.0912 38.52L33.0994 55.5547H38.7684L40.7432 43.477C41.3918 44.0138 42.079 44.4995 42.7994 44.9329C44.6891 46.1339 46.8667 46.8054 49.1046 46.8773H49.1156C49.2826 46.8773 49.4524 46.8869 49.6249 46.8869C56.5649 46.8869 62.0918 41.5132 62.0918 34.2696C62.0932 27.0218 56.5718 21.6026 49.6331 21.6026Z" fill="white"/>
</svg>
