<svg width="70" height="70" viewBox="0 0 70 70" fill="none" xmlns="http://www.w3.org/2000/svg">
<path d="M35 35.0005C35 28.5572 42.8349 23.3337 52.5 23.3337C62.1648 23.3337 69.9999 28.5572 69.9999 35.0005C69.9999 41.4439 62.1648 46.6672 52.5 46.6672C42.8349 46.6672 35 41.4439 35 35.0005Z" fill="#1ABCFE"/>
<path d="M0 58.3332C0 51.89 7.83492 46.6665 17.5 46.6665H34.9999V58.3332C34.9999 64.7766 27.165 69.9999 17.5 69.9999C7.83492 69.9999 0 64.7766 0 58.3332Z" fill="#0ACF83"/>
<path d="M35 0V23.3333H52.5C62.165 23.3333 69.9999 18.11 69.9999 11.6665C69.9999 5.22315 62.165 0 52.5 0H35Z" fill="#FF7262"/>
<path d="M0 11.6667C0 18.1101 7.83492 23.3334 17.5 23.3334H34.9999V0H17.5C7.83492 0 0 5.22348 0 11.6667Z" fill="#F24E1E"/>
<path d="M0 35.0005C0 41.4439 7.83492 46.6672 17.5 46.6672H34.9999V23.3337H17.5C7.83492 23.3337 0 28.5572 0 35.0005Z" fill="#A259FF"/>
</svg>
