<svg width="70" height="70" viewBox="0 0 70 70" fill="none" xmlns="http://www.w3.org/2000/svg">
<path d="M40.081 34.9999C40.0809 35.6673 39.9495 36.3281 39.694 36.9446C39.4386 37.5611 39.0643 38.1213 38.5924 38.5931C37.6394 39.5461 36.3468 40.0814 34.999 40.0813C33.6513 40.0812 32.3588 39.5458 31.4059 38.5927C30.4529 37.6397 29.9176 36.3471 29.9177 34.9994C29.9178 33.6517 30.4532 32.3592 31.4062 31.4062C32.3593 30.4533 33.6519 29.918 34.9996 29.918C36.3473 29.9181 37.6398 30.4536 38.5928 31.4066C39.5457 32.3596 40.081 33.6522 40.081 34.9999ZM57.5555 21.9736C56.4527 20.0699 55.1104 18.3153 53.5615 16.7528L47.6837 20.1435C45.8724 18.5972 43.7954 17.3924 41.5538 16.5879C39.5936 18.5559 37.9882 20.8479 36.8086 23.3627C43.3495 22.9172 50.1023 25.2865 56.3697 30.1835L60.0684 28.0476C59.4922 25.9243 58.6478 23.8835 57.5555 21.9736ZM34.9999 61.0399C37.198 61.0329 39.3865 60.7483 41.5133 60.1928V53.412C43.7603 52.6179 45.843 51.4194 47.6585 49.8756C46.9328 47.1938 45.7512 44.6569 44.1653 42.3758C41.2799 48.2597 35.8558 52.9238 28.4804 55.903V60.1715C30.6065 60.7432 32.7982 61.0355 34.9999 61.0399ZM12.4443 21.9797C11.3499 23.8872 10.5033 25.9265 9.9248 28.0482L15.8004 31.4383C15.3659 33.7797 15.3621 36.1835 15.7878 38.5276C18.4725 39.2418 21.2602 39.4873 24.0284 39.2531C20.3697 33.8142 19.0475 26.7808 20.1495 18.9041L16.4508 16.7682C14.8988 18.3276 13.5524 20.079 12.4443 21.9797Z" fill="black"/>
<path d="M35 0C15.6701 0 0 15.6701 0 35C0 54.3299 15.6701 70 35 70C54.3299 70 70 54.3299 70 35C70 15.6701 54.3299 0 35 0ZM35 4.48C51.8274 4.48 65.5205 18.1721 65.5205 35C65.5205 51.8274 51.8274 65.5205 35 65.5205C18.1726 65.5205 4.47945 51.8274 4.47945 35C4.47945 18.1726 18.1726 4.48 35 4.48ZM35 8.95123C32.8018 8.96006 30.6135 9.24541 28.4866 9.80055V16.5819C26.2397 17.375 24.157 18.5727 22.3414 20.1156C23.0662 22.7977 24.2479 25.3347 25.8345 27.6153C28.72 21.7337 34.1436 17.0674 41.5195 14.0882V9.82192C39.3922 9.25546 37.2014 8.96269 35 8.95068V8.95123ZM48.7479 30.6712C47.8249 30.6438 46.901 30.6689 45.9808 30.7463C49.6356 36.1852 50.9589 43.2186 49.8564 51.0953L53.5551 53.2312C55.1018 51.6687 56.4459 49.9178 57.5556 48.0197C58.6515 46.1167 59.4926 44.0745 60.0751 41.9512L54.2055 38.5616C54.6438 36.1923 54.6438 33.7945 54.2181 31.4723C52.4312 30.9968 50.5956 30.7283 48.7474 30.6723L48.7479 30.6712ZM13.6301 39.8077L9.93151 41.9463C10.5128 44.0679 11.3569 46.1086 12.4444 48.0208C13.5477 49.924 14.89 51.6784 16.4384 53.2411L22.3162 49.851C24.1271 51.3972 26.2042 52.6011 28.446 53.4038C30.4062 51.4366 32.0116 49.1453 33.1912 46.6312C26.6504 47.0767 19.8975 44.7052 13.6301 39.8077Z" fill="#00B4FF"/>
</svg>
